<mxfile host="app.diagrams.net" modified="2023-04-10T01:53:37.603Z" agent="Mozilla/5.0 (Macintosh; Intel Mac OS X 10_15_7) AppleWebKit/537.36 (KHTML, like Gecko) Chrome/111.0.0.0 Safari/537.36" version="21.1.5" etag="bKNo4ruJ5knP7Fp__M79" type="github">
  <diagram name="第 1 页" id="KfZbTqBL60Angyo1pV4m">
    <mxGraphModel>
      <root>
        <mxCell id="0" />
        <mxCell id="1" parent="0" />
      </root>
    </mxGraphModel>
  </diagram>
</mxfile>
